<?xml version="1.0" encoding="UTF-8"?>
<!DOCTYPE svg PUBLIC "-//W3C//DTD SVG 1.1//EN" "http://www.w3.org/Graphics/SVG/1.1/DTD/svg11.dtd">
<svg xmlns="http://www.w3.org/2000/svg" version="1.1" width="225px" height="225px" style="shape-rendering:geometricPrecision; text-rendering:geometricPrecision; image-rendering:optimizeQuality; fill-rule:evenodd; clip-rule:evenodd" xmlns:xlink="http://www.w3.org/1999/xlink">
<g><path style="opacity:1" fill="#eeeeee" d="M -0.5,-0.5 C 4.5,-0.5 9.5,-0.5 14.5,-0.5C 14.5,4.5 14.5,9.5 14.5,14.5C 9.5,14.5 4.5,14.5 -0.5,14.5C -0.5,9.5 -0.5,4.5 -0.5,-0.5 Z"/></g>
<g><path style="opacity:1" fill="#fdfdfd" d="M 14.5,-0.5 C 19.5,-0.5 24.5,-0.5 29.5,-0.5C 29.5,4.16667 29.5,8.83333 29.5,13.5C 24.8507,14.065 20.184,14.565 15.5,15C 14.5083,19.7491 13.8417,24.5825 13.5,29.5C 8.83333,29.5 4.16667,29.5 -0.5,29.5C -0.5,24.5 -0.5,19.5 -0.5,14.5C 4.5,14.5 9.5,14.5 14.5,14.5C 14.5,9.5 14.5,4.5 14.5,-0.5 Z"/></g>
<g><path style="opacity:1" fill="#ededed" d="M 209.5,-0.5 C 214.5,-0.5 219.5,-0.5 224.5,-0.5C 224.5,4.5 224.5,9.5 224.5,14.5C 219.821,14.3342 215.155,14.5008 210.5,15C 208.909,18.2751 209.242,21.2751 211.5,24C 208.833,25.6667 208.833,27.3333 211.5,29C 215.821,29.499 220.154,29.6657 224.5,29.5C 224.5,34.5 224.5,39.5 224.5,44.5C 219.473,44.5029 214.473,44.8363 209.5,45.5C 209.5,49.8333 209.5,54.1667 209.5,58.5C 214.453,59.3292 219.453,59.6625 224.5,59.5C 224.5,64.5 224.5,69.5 224.5,74.5C 219.786,74.1734 215.12,74.5067 210.5,75.5C 209.833,76.1667 209.167,76.8333 208.5,77.5C 209.254,80.777 209.754,84.1103 210,87.5C 210.5,88 211,88.5 211.5,89C 215.821,89.499 220.154,89.6657 224.5,89.5C 224.5,94.5 224.5,99.5 224.5,104.5C 219.821,104.666 215.155,104.499 210.5,104C 209.167,101 209.167,98 210.5,95C 209.833,93.3333 209.167,91.6667 208.5,90C 204.167,89.3333 199.833,89.3333 195.5,90C 194.549,93.0567 194.216,96.2234 194.5,99.5C 193.373,98.8783 192.373,98.045 191.5,97C 186.316,96.8261 181.316,96.3261 176.5,95.5C 177.5,95.5 178.5,95.5 179.5,95.5C 179.291,93.2856 180.124,91.619 182,90.5C 186.189,90.0653 190.189,89.0653 194,87.5C 194.2,83.2467 194.7,79.08 195.5,75C 200.086,74.8029 204.586,74.3029 209,73.5C 209.791,69.0745 209.457,64.7411 208,60.5C 203.667,59.8333 199.333,59.1667 195,58.5C 194.501,53.8452 194.334,49.1785 194.5,44.5C 189.5,44.5 184.5,44.5 179.5,44.5C 179.176,48.5546 179.509,52.5546 180.5,56.5C 181.895,55.1854 182.895,55.5188 183.5,57.5C 182.738,57.9106 181.738,58.0773 180.5,58C 179.549,58.7175 179.383,59.5509 180,60.5C 184.737,59.5308 189.57,59.1975 194.5,59.5C 194.5,64.5 194.5,69.5 194.5,74.5C 189.5,74.5 184.5,74.5 179.5,74.5C 179.657,73.1266 179.49,71.7932 179,70.5C 178.014,71.1712 176.847,71.1712 175.5,70.5C 178.149,68.4414 178.982,65.7747 178,62.5C 172.963,57.6313 168.13,52.6313 163.5,47.5C 164.283,45.9242 165.45,44.5908 167,43.5C 170.802,44.8061 174.635,44.8061 178.5,43.5C 179.192,38.952 179.859,34.452 180.5,30C 184.821,29.501 189.154,29.3343 193.5,29.5C 193.675,24.7661 194.342,20.0994 195.5,15.5C 199.7,14.8625 203.866,14.1959 208,13.5C 208.96,9.12361 209.46,4.45694 209.5,-0.5 Z"/></g>
<g><path style="opacity:1" fill="#fdfdfd" d="M 224.5,14.5 C 224.5,19.5 224.5,24.5 224.5,29.5C 220.154,29.6657 215.821,29.499 211.5,29C 208.833,27.3333 208.833,25.6667 211.5,24C 209.242,21.2751 208.909,18.2751 210.5,15C 215.155,14.5008 219.821,14.3342 224.5,14.5 Z"/></g>
<g><path style="opacity:1" fill="#fdfdfd" d="M 194.5,-0.5 C 199.5,-0.5 204.5,-0.5 209.5,-0.5C 209.46,4.45694 208.96,9.12361 208,13.5C 203.866,14.1959 199.7,14.8625 195.5,15.5C 194.342,20.0994 193.675,24.7661 193.5,29.5C 189.154,29.3343 184.821,29.501 180.5,30C 179.859,34.452 179.192,38.952 178.5,43.5C 174.635,44.8061 170.802,44.8061 167,43.5C 165.45,44.5908 164.283,45.9242 163.5,47.5C 162.833,47.5 162.5,47.1667 162.5,46.5C 162.389,45.8826 162.056,45.3826 161.5,45C 163.455,44.0467 165.122,42.7134 166.5,41C 164.623,37.5065 163.956,33.6732 164.5,29.5C 159.821,29.6658 155.155,29.4992 150.5,29C 149.833,27.3333 149.167,25.6667 148.5,24C 149.451,20.9433 149.784,17.7766 149.5,14.5C 154.233,14.2232 158.9,14.5565 163.5,15.5C 164.658,20.0994 165.325,24.7661 165.5,29.5C 169.846,29.6657 174.179,29.499 178.5,29C 179.141,24.548 179.808,20.048 180.5,15.5C 185.1,14.5565 189.767,14.2232 194.5,14.5C 194.5,9.5 194.5,4.5 194.5,-0.5 Z"/></g>
<g><path style="opacity:1" fill="#fefefe" d="M 199.5,29.5 C 202.833,29.5 206.167,29.5 209.5,29.5C 209.296,34.2877 209.296,38.9544 209.5,43.5C 197.055,48.2077 192.222,44.2077 195,31.5C 196.622,30.9011 198.122,30.2344 199.5,29.5 Z"/></g>
<g><path style="opacity:1" fill="#414851" d="M 98.5,30.5 C 98.8333,30.5 99.1667,30.5 99.5,30.5C 108.042,30.2101 116.542,30.5435 125,31.5C 125.945,31.9054 126.612,32.572 127,33.5C 127.499,38.4889 127.666,43.4889 127.5,48.5C 134.088,49.6236 140.421,51.6236 146.5,54.5C 150.093,52.5781 153.093,49.9114 155.5,46.5C 157.811,45.4249 160.144,45.4249 162.5,46.5C 162.5,47.1667 162.833,47.5 163.5,47.5C 168.13,52.6313 172.963,57.6313 178,62.5C 178.982,65.7747 178.149,68.4414 175.5,70.5C 174.5,71.8333 173.5,73.1667 172.5,74.5C 170.978,75.1909 169.978,76.3576 169.5,78C 171.693,82.5412 173.693,87.0412 175.5,91.5C 175.433,92.9587 175.766,94.2921 176.5,95.5C 181.316,96.3261 186.316,96.8261 191.5,97C 192.373,98.045 193.373,98.8783 194.5,99.5C 194.831,107.86 194.498,116.193 193.5,124.5C 192.818,125.243 192.151,125.909 191.5,126.5C 186.167,126.5 180.833,126.5 175.5,126.5C 175.5,127.5 175.5,128.5 175.5,129.5C 174.396,135.31 172.396,140.81 169.5,146C 171.988,149.655 174.988,152.822 178.5,155.5C 178.702,157.989 178.202,160.323 177,162.5C 172.5,167 168,171.5 163.5,176C 161.323,177.202 158.989,177.702 156.5,177.5C 156.167,177.5 155.833,177.5 155.5,177.5C 152.854,174.188 149.854,171.188 146.5,168.5C 140.498,171.833 134.165,174.166 127.5,175.5C 131.578,190.083 126.244,196.083 111.5,193.5C 107.5,193.333 103.5,193.167 99.5,193C 99,192.5 98.5,192 98,191.5C 97.2711,185.84 96.1045,180.506 94.5,175.5C 88.2707,174.535 82.604,172.201 77.5,168.5C 75.5008,169.508 73.8342,170.841 72.5,172.5C 72.1667,173.5 71.5,174.167 70.5,174.5C 68.7541,176.252 66.7541,177.585 64.5,178.5C 63.209,178.737 62.209,178.404 61.5,177.5C 56.2304,171.729 50.7304,166.062 45,160.5C 44.3333,159.167 44.3333,157.833 45,156.5C 48.2858,153.107 51.4525,149.607 54.5,146C 50.9138,140.662 48.5805,134.829 47.5,128.5C 42.9443,126.558 37.9443,125.892 32.5,126.5C 31.2719,125.694 30.2719,124.694 29.5,123.5C 29.5,122.167 29.5,120.833 29.5,119.5C 29.5,114.167 29.5,108.833 29.5,103.5C 29.5,102.167 29.5,100.833 29.5,99.5C 30.6266,98.8783 31.6266,98.045 32.5,97C 37.4889,96.5007 42.4889,96.3341 47.5,96.5C 48.838,89.8212 51.1714,83.4878 54.5,77.5C 51.8496,74.3489 49.0162,71.3489 46,68.5C 44.8129,66.9556 44.4795,65.2889 45,63.5C 50.527,57.973 56.027,52.473 61.5,47C 62.6086,46.3623 63.7753,45.8623 65,45.5C 69.5883,48.2495 73.755,51.5829 77.5,55.5C 81.1003,53.2031 84.767,51.2031 88.5,49.5C 90.2161,49.3713 91.8828,49.038 93.5,48.5C 94.5,48.5 95.5,48.5 96.5,48.5C 95.9774,42.2819 96.6441,36.2819 98.5,30.5 Z"/></g>
<g><path style="opacity:1" fill="#fdfdfd" d="M -0.5,44.5 C 4.5,44.5 9.5,44.5 14.5,44.5C 14.5,49.5 14.5,54.5 14.5,59.5C 9.5,59.5 4.5,59.5 -0.5,59.5C -0.5,54.5 -0.5,49.5 -0.5,44.5 Z"/></g>
<g><path style="opacity:1" fill="#fdfdfd" d="M 224.5,44.5 C 224.5,49.5 224.5,54.5 224.5,59.5C 219.453,59.6625 214.453,59.3292 209.5,58.5C 209.5,54.1667 209.5,49.8333 209.5,45.5C 214.473,44.8363 219.473,44.5029 224.5,44.5 Z"/></g>
<g><path style="opacity:1" fill="#fdfdfd" d="M -0.5,89.5 C -0.5,84.5 -0.5,79.5 -0.5,74.5C 4.5,74.5 9.5,74.5 14.5,74.5C 14.1975,69.57 14.5308,64.7367 15.5,60C 20.2041,59.3523 24.8708,59.519 29.5,60.5C 29.5,64.8333 29.5,69.1667 29.5,73.5C 24.7863,73.8017 20.1197,74.4683 15.5,75.5C 14.7315,79.4452 14.2315,83.4452 14,87.5C 13.6924,88.3081 13.1924,88.9747 12.5,89.5C 8.26068,89.1828 3.92734,89.1828 -0.5,89.5 Z"/></g>
<g><path style="opacity:1" fill="#fdfdfd" d="M 176.5,95.5 C 175.766,94.2921 175.433,92.9587 175.5,91.5C 175.577,90.2502 176.244,89.4169 177.5,89C 176.66,87.3335 177.16,87.1669 179,88.5C 179.828,84.1287 179.661,79.7953 178.5,75.5C 176.591,74.6518 174.591,74.3184 172.5,74.5C 173.5,73.1667 174.5,71.8333 175.5,70.5C 176.847,71.1712 178.014,71.1712 179,70.5C 179.49,71.7932 179.657,73.1266 179.5,74.5C 184.5,74.5 189.5,74.5 194.5,74.5C 194.5,69.5 194.5,64.5 194.5,59.5C 189.57,59.1975 184.737,59.5308 180,60.5C 179.383,59.5509 179.549,58.7175 180.5,58C 181.738,58.0773 182.738,57.9106 183.5,57.5C 182.895,55.5188 181.895,55.1854 180.5,56.5C 179.509,52.5546 179.176,48.5546 179.5,44.5C 184.5,44.5 189.5,44.5 194.5,44.5C 194.334,49.1785 194.501,53.8452 195,58.5C 199.333,59.1667 203.667,59.8333 208,60.5C 209.457,64.7411 209.791,69.0745 209,73.5C 204.586,74.3029 200.086,74.8029 195.5,75C 194.7,79.08 194.2,83.2467 194,87.5C 190.189,89.0653 186.189,90.0653 182,90.5C 180.124,91.619 179.291,93.2856 179.5,95.5C 178.5,95.5 177.5,95.5 176.5,95.5 Z"/></g>
<g><path style="opacity:1" fill="#ededed" d="M 29.5,-0.5 C 34.5,-0.5 39.5,-0.5 44.5,-0.5C 44.5,4.5 44.5,9.5 44.5,14.5C 49.5,14.5 54.5,14.5 59.5,14.5C 59.5,9.5 59.5,4.5 59.5,-0.5C 64.5,-0.5 69.5,-0.5 74.5,-0.5C 74.5,4.5 74.5,9.5 74.5,14.5C 69.7668,14.2232 65.1001,14.5565 60.5,15.5C 59.6725,19.7956 59.1725,24.1289 59,28.5C 54.4706,29.0949 49.9706,29.9283 45.5,31C 44.8333,35.3333 44.1667,39.6667 43.5,44C 38.9145,44.1971 34.4145,44.6971 30,45.5C 29.2093,49.9255 29.5427,54.2589 31,58.5C 34,59.1667 37,59.8333 40,60.5C 40.3333,60.1667 40.6667,59.8333 41,59.5C 40.7247,63.4832 41.7247,63.4832 44,59.5C 44.4993,54.5111 44.6659,49.5111 44.5,44.5C 48.9204,44.4666 53.2538,44.6333 57.5,45C 58,44.5 58.5,44 59,43.5C 59.1971,38.9145 59.6971,34.4145 60.5,30C 64.8206,29.501 69.1539,29.3343 73.5,29.5C 73.6751,24.7661 74.3418,20.0994 75.5,15.5C 79.6996,14.8625 83.8663,14.1959 88,13.5C 88.9598,9.12361 89.4598,4.45694 89.5,-0.5C 94.5,-0.5 99.5,-0.5 104.5,-0.5C 104.5,4.5 104.5,9.5 104.5,14.5C 109.5,14.5 114.5,14.5 119.5,14.5C 119.334,19.1785 119.501,23.8452 120,28.5C 124.401,29.4667 128.901,29.8 133.5,29.5C 133.962,24.8376 134.462,20.1709 135,15.5C 139.763,14.6056 144.597,13.9389 149.5,13.5C 149.5,8.83333 149.5,4.16667 149.5,-0.5C 154.5,-0.5 159.5,-0.5 164.5,-0.5C 164.5,4.5 164.5,9.5 164.5,14.5C 169.5,14.5 174.5,14.5 179.5,14.5C 179.5,9.5 179.5,4.5 179.5,-0.5C 184.5,-0.5 189.5,-0.5 194.5,-0.5C 194.5,4.5 194.5,9.5 194.5,14.5C 189.767,14.2232 185.1,14.5565 180.5,15.5C 179.808,20.048 179.141,24.548 178.5,29C 174.179,29.499 169.846,29.6657 165.5,29.5C 165.325,24.7661 164.658,20.0994 163.5,15.5C 158.9,14.5565 154.233,14.2232 149.5,14.5C 149.784,17.7766 149.451,20.9433 148.5,24C 149.167,25.6667 149.833,27.3333 150.5,29C 155.155,29.4992 159.821,29.6658 164.5,29.5C 163.956,33.6732 164.623,37.5065 166.5,41C 165.122,42.7134 163.455,44.0467 161.5,45C 162.056,45.3826 162.389,45.8826 162.5,46.5C 160.144,45.4249 157.811,45.4249 155.5,46.5C 153.093,49.9114 150.093,52.5781 146.5,54.5C 140.421,51.6236 134.088,49.6236 127.5,48.5C 127.666,43.4889 127.499,38.4889 127,33.5C 126.612,32.572 125.945,31.9054 125,31.5C 116.542,30.5435 108.042,30.2101 99.5,30.5C 105.974,27.2221 107.474,22.2221 104,15.5C 99.3333,14.1667 94.6667,14.1667 90,15.5C 89.0135,18.6967 89.5135,21.5301 91.5,24C 88.8333,25.6667 88.8333,27.3333 91.5,29C 93.8659,29.4396 96.1992,29.9396 98.5,30.5C 96.6441,36.2819 95.9774,42.2819 96.5,48.5C 95.5,48.5 94.5,48.5 93.5,48.5C 95.3505,47.1336 95.6838,45.467 94.5,43.5C 93.2638,44.2458 91.9305,44.5792 90.5,44.5C 89.8363,39.5275 89.5029,34.5275 89.5,29.5C 84.752,29.2748 80.0853,29.7748 75.5,31C 71.5273,42.3654 75.5273,47.032 87.5,45C 89.8912,46.3086 89.8912,47.3086 87.5,48C 88.056,48.3826 88.3893,48.8826 88.5,49.5C 84.767,51.2031 81.1003,53.2031 77.5,55.5C 73.755,51.5829 69.5883,48.2495 65,45.5C 63.7753,45.8623 62.6086,46.3623 61.5,47C 56.027,52.473 50.527,57.973 45,63.5C 44.4795,65.2889 44.8129,66.9556 46,68.5C 49.0162,71.3489 51.8496,74.3489 54.5,77.5C 51.1714,83.4878 48.838,89.8212 47.5,96.5C 42.4889,96.3341 37.4889,96.5007 32.5,97C 31.6266,98.045 30.6266,98.8783 29.5,99.5C 28.9475,97.0607 28.9475,94.7273 29.5,92.5C 29.0233,91.5224 28.3567,90.6891 27.5,90C 14.1026,86.7274 10.1026,91.3941 15.5,104C 18.4262,104.218 21.2595,104.718 24,105.5C 25.0674,104.809 26.2341,104.309 27.5,104C 26.2164,102.703 26.3831,101.536 28,100.5C 28.2321,101.737 28.7321,102.737 29.5,103.5C 29.5,108.833 29.5,114.167 29.5,119.5C 28.7784,119.918 28.2784,120.584 28,121.5C 23.8222,119.601 19.3222,118.935 14.5,119.5C 14.5,114.5 14.5,109.5 14.5,104.5C 9.5,104.5 4.5,104.5 -0.5,104.5C -0.5,99.5 -0.5,94.5 -0.5,89.5C 3.92734,89.1828 8.26068,89.1828 12.5,89.5C 13.1924,88.9747 13.6924,88.3081 14,87.5C 14.2315,83.4452 14.7315,79.4452 15.5,75.5C 20.1197,74.4683 24.7863,73.8017 29.5,73.5C 29.5,69.1667 29.5,64.8333 29.5,60.5C 24.8708,59.519 20.2041,59.3523 15.5,60C 14.5308,64.7367 14.1975,69.57 14.5,74.5C 9.5,74.5 4.5,74.5 -0.5,74.5C -0.5,69.5 -0.5,64.5 -0.5,59.5C 4.5,59.5 9.5,59.5 14.5,59.5C 14.5,54.5 14.5,49.5 14.5,44.5C 9.5,44.5 4.5,44.5 -0.5,44.5C -0.5,39.5 -0.5,34.5 -0.5,29.5C 4.16667,29.5 8.83333,29.5 13.5,29.5C 13.8417,24.5825 14.5083,19.7491 15.5,15C 20.184,14.565 24.8507,14.065 29.5,13.5C 29.5,8.83333 29.5,4.16667 29.5,-0.5 Z"/></g>
<g><path style="opacity:1" fill="#fdfdfd" d="M 134.5,29.5 C 138.846,29.3343 143.179,29.501 147.5,30C 148,30.5 148.5,31 149,31.5C 149.246,34.8897 149.746,38.223 150.5,41.5C 149.833,42.1667 149.167,42.8333 148.5,43.5C 144.167,44.8333 139.833,44.8333 135.5,43.5C 134.557,38.8999 134.223,34.2332 134.5,29.5 Z"/></g>
<g><path style="opacity:1" fill="#fdfdfd" d="M 93.5,48.5 C 91.8828,49.038 90.2161,49.3713 88.5,49.5C 88.3893,48.8826 88.056,48.3826 87.5,48C 89.8912,47.3086 89.8912,46.3086 87.5,45C 75.5273,47.032 71.5273,42.3654 75.5,31C 80.0853,29.7748 84.752,29.2748 89.5,29.5C 89.5029,34.5275 89.8363,39.5275 90.5,44.5C 91.9305,44.5792 93.2638,44.2458 94.5,43.5C 95.6838,45.467 95.3505,47.1336 93.5,48.5 Z"/></g>
<g><path style="opacity:1" fill="#fdfdfd" d="M 74.5,-0.5 C 79.5,-0.5 84.5,-0.5 89.5,-0.5C 89.4598,4.45694 88.9598,9.12361 88,13.5C 83.8663,14.1959 79.6996,14.8625 75.5,15.5C 74.3418,20.0994 73.6751,24.7661 73.5,29.5C 69.1539,29.3343 64.8206,29.501 60.5,30C 59.6971,34.4145 59.1971,38.9145 59,43.5C 58.5,44 58,44.5 57.5,45C 53.2538,44.6333 48.9204,44.4666 44.5,44.5C 44.6659,49.5111 44.4993,54.5111 44,59.5C 41.7247,63.4832 40.7247,63.4832 41,59.5C 40.6667,59.8333 40.3333,60.1667 40,60.5C 37,59.8333 34,59.1667 31,58.5C 29.5427,54.2589 29.2093,49.9255 30,45.5C 34.4145,44.6971 38.9145,44.1971 43.5,44C 44.1667,39.6667 44.8333,35.3333 45.5,31C 49.9706,29.9283 54.4706,29.0949 59,28.5C 59.1725,24.1289 59.6725,19.7956 60.5,15.5C 65.1001,14.5565 69.7668,14.2232 74.5,14.5C 74.5,9.5 74.5,4.5 74.5,-0.5 Z"/></g>
<g><path style="opacity:1" fill="#fdfdfd" d="M 14.5,29.5 C 18.8461,29.3343 23.1794,29.501 27.5,30C 28,30.5 28.5,31 29,31.5C 29.2463,34.8897 29.7463,38.223 30.5,41.5C 29.8333,42.1667 29.1667,42.8333 28.5,43.5C 24.1667,44.8333 19.8333,44.8333 15.5,43.5C 14.5565,38.8999 14.2232,34.2332 14.5,29.5 Z"/></g>
<g><path style="opacity:1" fill="#fdfdfd" d="M 99.5,30.5 C 99.1667,30.5 98.8333,30.5 98.5,30.5C 96.1992,29.9396 93.8659,29.4396 91.5,29C 88.8333,27.3333 88.8333,25.6667 91.5,24C 89.5135,21.5301 89.0135,18.6967 90,15.5C 94.6667,14.1667 99.3333,14.1667 104,15.5C 107.474,22.2221 105.974,27.2221 99.5,30.5 Z"/></g>
<g><path style="opacity:1" fill="#fdfdfd" d="M 29.5,14.5 C 34.2332,14.2232 38.8999,14.5565 43.5,15.5C 44.6609,19.7953 44.8275,24.1287 44,28.5C 39.5868,29.6324 35.0868,29.7991 30.5,29C 29.8333,27.3333 29.1667,25.6667 28.5,24C 29.4505,20.9433 29.7839,17.7766 29.5,14.5 Z"/></g>
<g><path style="opacity:1" fill="#fefefe" d="M 164.5,-0.5 C 169.5,-0.5 174.5,-0.5 179.5,-0.5C 179.5,4.5 179.5,9.5 179.5,14.5C 174.5,14.5 169.5,14.5 164.5,14.5C 164.5,9.5 164.5,4.5 164.5,-0.5 Z"/></g>
<g><path style="opacity:1" fill="#fdfdfd" d="M 134.5,-0.5 C 139.5,-0.5 144.5,-0.5 149.5,-0.5C 149.5,4.16667 149.5,8.83333 149.5,13.5C 144.597,13.9389 139.763,14.6056 135,15.5C 134.462,20.1709 133.962,24.8376 133.5,29.5C 128.901,29.8 124.401,29.4667 120,28.5C 119.501,23.8452 119.334,19.1785 119.5,14.5C 124.5,14.5 129.5,14.5 134.5,14.5C 134.5,9.5 134.5,4.5 134.5,-0.5 Z"/></g>
<g><path style="opacity:1" fill="#eeeeee" d="M 119.5,-0.5 C 124.5,-0.5 129.5,-0.5 134.5,-0.5C 134.5,4.5 134.5,9.5 134.5,14.5C 129.5,14.5 124.5,14.5 119.5,14.5C 119.5,9.5 119.5,4.5 119.5,-0.5 Z"/></g>
<g><path style="opacity:1" fill="#fdfdfd" d="M 104.5,-0.5 C 109.5,-0.5 114.5,-0.5 119.5,-0.5C 119.5,4.5 119.5,9.5 119.5,14.5C 114.5,14.5 109.5,14.5 104.5,14.5C 104.5,9.5 104.5,4.5 104.5,-0.5 Z"/></g>
<g><path style="opacity:1" fill="#fefefe" d="M 44.5,-0.5 C 49.5,-0.5 54.5,-0.5 59.5,-0.5C 59.5,4.5 59.5,9.5 59.5,14.5C 54.5,14.5 49.5,14.5 44.5,14.5C 44.5,9.5 44.5,4.5 44.5,-0.5 Z"/></g>
<g><path style="opacity:1" fill="#fdfdfd" d="M 29.5,74.5 C 33.8461,74.3343 38.1794,74.501 42.5,75C 43,75.5 43.5,76 44,76.5C 44.499,80.8206 44.6657,85.1539 44.5,89.5C 43.1667,89.5 41.8333,89.5 40.5,89.5C 40.1667,93.5 39.8333,93.5 39.5,89.5C 36.1667,89.5 32.8333,89.5 29.5,89.5C 29.7642,84.3803 29.7642,79.3803 29.5,74.5 Z"/></g>
<g><path style="opacity:1" fill="#fdfdfd" d="M 224.5,74.5 C 224.5,79.5 224.5,84.5 224.5,89.5C 220.154,89.6657 215.821,89.499 211.5,89C 211,88.5 210.5,88 210,87.5C 209.754,84.1103 209.254,80.777 208.5,77.5C 209.167,76.8333 209.833,76.1667 210.5,75.5C 215.12,74.5067 219.786,74.1734 224.5,74.5 Z"/></g>
<g><path style="opacity:1" fill="#e9ebea" d="M 172.5,74.5 C 174.591,74.3184 176.591,74.6518 178.5,75.5C 179.661,79.7953 179.828,84.1287 179,88.5C 177.16,87.1669 176.66,87.3335 177.5,89C 176.244,89.4169 175.577,90.2502 175.5,91.5C 173.693,87.0412 171.693,82.5412 169.5,78C 169.978,76.3576 170.978,75.1909 172.5,74.5 Z"/></g>
<g><path style="opacity:1" fill="#394a5e" d="M 150.5,98.5 C 150.167,98.5 149.833,98.5 149.5,98.5C 144.95,85.5139 135.95,77.0139 122.5,73C 116.843,72.5006 111.176,72.3339 105.5,72.5C 105.611,71.8826 105.944,71.3826 106.5,71C 116.92,69.3549 126.587,71.3549 135.5,77C 138.099,77.769 140.599,77.6023 143,76.5C 143.483,77.448 143.649,78.448 143.5,79.5C 145.527,79.3379 147.527,79.5045 149.5,80C 147.981,81.3513 146.648,82.8513 145.5,84.5C 146.747,87.3286 148.247,89.9952 150,92.5C 150.495,94.4727 150.662,96.4727 150.5,98.5 Z"/></g>
<g><path style="opacity:1" fill="#fdfdfc" d="M 29.5,99.5 C 29.5,100.833 29.5,102.167 29.5,103.5C 28.7321,102.737 28.2321,101.737 28,100.5C 26.3831,101.536 26.2164,102.703 27.5,104C 26.2341,104.309 25.0674,104.809 24,105.5C 21.2595,104.718 18.4262,104.218 15.5,104C 10.1026,91.3941 14.1026,86.7274 27.5,90C 28.3567,90.6891 29.0233,91.5224 29.5,92.5C 28.9475,94.7273 28.9475,97.0607 29.5,99.5 Z"/></g>
<g><path style="opacity:1" fill="#eff4f3" d="M 146.5,119.5 C 141.807,132.859 132.807,141.859 119.5,146.5C 99.4139,148.715 86.0806,140.381 79.5,121.5C 80.9587,121.433 82.2921,121.766 83.5,122.5C 86.5,123.833 89.5,123.833 92.5,122.5C 97.7759,121.707 99.6092,118.707 98,113.5C 97.5348,112.069 96.7014,110.903 95.5,110C 93.1902,109.503 90.8568,109.337 88.5,109.5C 90.5078,107.917 92.8411,106.917 95.5,106.5C 95.8333,106.5 96.1667,106.5 96.5,106.5C 97.4674,105.194 98.8007,104.527 100.5,104.5C 100.21,110.561 100.543,116.561 101.5,122.5C 106.318,123.812 110.985,123.812 115.5,122.5C 116.833,120.833 116.833,119.167 115.5,117.5C 113.031,116.683 110.365,116.183 107.5,116C 110.036,115.814 112.369,115.314 114.5,114.5C 115.72,112.716 115.72,111.05 114.5,109.5C 112.369,108.686 110.036,108.186 107.5,108C 110.036,107.814 112.369,107.314 114.5,106.5C 117.972,105.423 118.305,103.756 115.5,101.5C 109.69,100.51 103.69,100.177 97.5,100.5C 97.5494,97.9009 98.5494,95.7342 100.5,94C 97.2663,93.3592 94.5996,94.3592 92.5,97C 93.448,97.4828 94.448,97.6495 95.5,97.5C 95.5,98.5 95.5,99.5 95.5,100.5C 92.1501,100.335 88.8168,100.502 85.5,101C 84.944,101.383 84.6107,101.883 84.5,102.5C 83.5987,103.29 82.9321,104.29 82.5,105.5C 81.5,105.5 80.5,105.5 79.5,105.5C 79.5,104.167 79.5,102.833 79.5,101.5C 86.4028,83.2008 99.7361,75.3675 119.5,78C 139.135,84.8196 148.135,98.653 146.5,119.5 Z"/></g>
<g><path style="opacity:1" fill="#fdfdfd" d="M -0.5,104.5 C 4.5,104.5 9.5,104.5 14.5,104.5C 14.5,109.5 14.5,114.5 14.5,119.5C 9.5,119.5 4.5,119.5 -0.5,119.5C -0.5,114.5 -0.5,109.5 -0.5,104.5 Z"/></g>
<g><path style="opacity:1" fill="#eeeeee" d="M -0.5,119.5 C 4.5,119.5 9.5,119.5 14.5,119.5C 14.5,124.5 14.5,129.5 14.5,134.5C 9.5,134.5 4.5,134.5 -0.5,134.5C -0.5,129.5 -0.5,124.5 -0.5,119.5 Z"/></g>
<g><path style="opacity:1" fill="#fdfdfd" d="M 14.5,119.5 C 19.3222,118.935 23.8222,119.601 28,121.5C 28.2784,120.584 28.7784,119.918 29.5,119.5C 29.5,120.833 29.5,122.167 29.5,123.5C 29.0025,126.674 29.0025,130.007 29.5,133.5C 24.8507,134.065 20.184,134.565 15.5,135C 14.5083,139.749 13.8417,144.582 13.5,149.5C 8.83333,149.5 4.16667,149.5 -0.5,149.5C -0.5,144.5 -0.5,139.5 -0.5,134.5C 4.5,134.5 9.5,134.5 14.5,134.5C 14.5,129.5 14.5,124.5 14.5,119.5 Z"/></g>
<g><path style="opacity:1" fill="#f8f8f8" d="M 224.5,104.5 C 224.5,109.5 224.5,114.5 224.5,119.5C 219.5,119.5 214.5,119.5 209.5,119.5C 209.46,124.457 208.96,129.124 208,133.5C 203.866,134.196 199.7,134.863 195.5,135.5C 194.342,140.099 193.675,144.766 193.5,149.5C 189.064,149.21 184.73,149.71 180.5,151C 179.359,151.741 179.359,152.575 180.5,153.5C 179.757,154.182 179.091,154.849 178.5,155.5C 174.988,152.822 171.988,149.655 169.5,146C 172.396,140.81 174.396,135.31 175.5,129.5C 180.728,127.936 186.061,126.936 191.5,126.5C 192.151,125.909 192.818,125.243 193.5,124.5C 194.498,116.193 194.831,107.86 194.5,99.5C 194.216,96.2234 194.549,93.0567 195.5,90C 199.833,89.3333 204.167,89.3333 208.5,90C 209.167,91.6667 209.833,93.3333 210.5,95C 209.167,98 209.167,101 210.5,104C 215.155,104.499 219.821,104.666 224.5,104.5 Z"/></g>
<g><path style="opacity:1" fill="#4e84bb" d="M 105.5,72.5 C 111.176,72.3339 116.843,72.5006 122.5,73C 135.95,77.0139 144.95,85.5139 149.5,98.5C 150.498,105.138 150.665,111.805 150,118.5C 148.148,125.32 146.981,125.653 146.5,119.5C 148.135,98.653 139.135,84.8196 119.5,78C 99.7361,75.3675 86.4028,83.2008 79.5,101.5C 78.0092,104.186 77.3425,107.186 77.5,110.5C 77.4537,114.428 78.1204,118.095 79.5,121.5C 86.0806,140.381 99.4139,148.715 119.5,146.5C 122.698,145.964 125.365,146.631 127.5,148.5C 126.791,149.404 125.791,149.737 124.5,149.5C 115.224,150.825 106.224,150.825 97.5,149.5C 82.8892,143.371 74.3892,132.371 72,116.5C 70.9174,96.5828 79.4174,82.4161 97.5,74C 100.063,72.9207 102.729,72.4207 105.5,72.5 Z"/></g>
<g><path style="opacity:1" fill="#5789bb" d="M 125.5,100.5 C 139.279,100.428 143.779,106.761 139,119.5C 131.543,125.424 125.209,124.424 120,116.5C 119.333,113.5 119.333,110.5 120,107.5C 121.666,105.004 123.5,102.671 125.5,100.5 Z"/></g>
<g><path style="opacity:1" fill="#4f84bb" d="M 111.5,101.5 C 112.833,101.5 114.167,101.5 115.5,101.5C 118.305,103.756 117.972,105.423 114.5,106.5C 111.833,106.5 109.167,106.5 106.5,106.5C 106.5,107.5 106.5,108.5 106.5,109.5C 109.167,109.5 111.833,109.5 114.5,109.5C 115.72,111.05 115.72,112.716 114.5,114.5C 111.833,114.5 109.167,114.5 106.5,114.5C 106.5,115.5 106.5,116.5 106.5,117.5C 109.5,117.5 112.5,117.5 115.5,117.5C 116.833,119.167 116.833,120.833 115.5,122.5C 111.131,122.533 106.798,122.2 102.5,121.5C 102.5,115.167 102.5,108.833 102.5,102.5C 105.713,102.81 108.713,102.477 111.5,101.5 Z"/></g>
<g><path style="opacity:1" fill="#7c9ec0" d="M 92.5,116.5 C 90.0948,117.768 87.4282,118.435 84.5,118.5C 84.5,119.833 84.5,121.167 84.5,122.5C 87.1667,122.5 89.8333,122.5 92.5,122.5C 89.5,123.833 86.5,123.833 83.5,122.5C 82.5661,120.761 82.5661,119.095 83.5,117.5C 86.4212,116.593 89.4212,116.26 92.5,116.5 Z"/></g>
<g><path style="opacity:1" fill="#dfe9f3" d="M 79.5,101.5 C 79.5,102.833 79.5,104.167 79.5,105.5C 80.5,105.5 81.5,105.5 82.5,105.5C 82.4207,108.271 82.9207,110.937 84,113.5C 87.1292,114.13 90.2959,114.796 93.5,115.5C 93.3764,116.107 93.0431,116.44 92.5,116.5C 89.4212,116.26 86.4212,116.593 83.5,117.5C 82.5661,119.095 82.5661,120.761 83.5,122.5C 82.2921,121.766 80.9587,121.433 79.5,121.5C 78.1204,118.095 77.4537,114.428 77.5,110.5C 77.3425,107.186 78.0092,104.186 79.5,101.5 Z"/></g>
<g><path style="opacity:1" fill="#90b5d3" d="M 114.5,114.5 C 112.369,115.314 110.036,115.814 107.5,116C 110.365,116.183 113.031,116.683 115.5,117.5C 112.5,117.5 109.5,117.5 106.5,117.5C 106.5,116.5 106.5,115.5 106.5,114.5C 109.167,114.5 111.833,114.5 114.5,114.5 Z"/></g>
<g><path style="opacity:1" fill="#eaf5f7" d="M 127.5,107.5 C 135.143,106.646 137.143,109.479 133.5,116C 125.749,117.091 123.749,114.258 127.5,107.5 Z"/></g>
<g><path style="opacity:1" fill="#8ebadb" d="M 114.5,106.5 C 112.369,107.314 110.036,107.814 107.5,108C 110.036,108.186 112.369,108.686 114.5,109.5C 111.833,109.5 109.167,109.5 106.5,109.5C 106.5,108.5 106.5,107.5 106.5,106.5C 109.167,106.5 111.833,106.5 114.5,106.5 Z"/></g>
<g><path style="opacity:1" fill="#9bacbc" d="M 95.5,106.5 C 92.8411,106.917 90.5078,107.917 88.5,109.5C 87.596,108.791 87.2627,107.791 87.5,106.5C 90.1667,106.5 92.8333,106.5 95.5,106.5 Z"/></g>
<g><path style="opacity:1" fill="#4f83b9" d="M 96.5,106.5 C 96.1667,106.5 95.8333,106.5 95.5,106.5C 92.8333,106.5 90.1667,106.5 87.5,106.5C 87.2627,107.791 87.596,108.791 88.5,109.5C 90.8568,109.337 93.1902,109.503 95.5,110C 96.7014,110.903 97.5348,112.069 98,113.5C 99.6092,118.707 97.7759,121.707 92.5,122.5C 89.8333,122.5 87.1667,122.5 84.5,122.5C 84.5,121.167 84.5,119.833 84.5,118.5C 87.4282,118.435 90.0948,117.768 92.5,116.5C 93.0431,116.44 93.3764,116.107 93.5,115.5C 90.2959,114.796 87.1292,114.13 84,113.5C 82.9207,110.937 82.4207,108.271 82.5,105.5C 82.9321,104.29 83.5987,103.29 84.5,102.5C 88.4338,101.64 92.4338,101.307 96.5,101.5C 96.5,103.167 96.5,104.833 96.5,106.5 Z"/></g>
<g><path style="opacity:1" fill="#6892b5" d="M 111.5,101.5 C 108.713,102.477 105.713,102.81 102.5,102.5C 102.5,108.833 102.5,115.167 102.5,121.5C 106.798,122.2 111.131,122.533 115.5,122.5C 110.985,123.812 106.318,123.812 101.5,122.5C 100.543,116.561 100.21,110.561 100.5,104.5C 100.5,103.5 100.5,102.5 100.5,101.5C 104.167,101.5 107.833,101.5 111.5,101.5 Z"/></g>
<g><path style="opacity:1" fill="#d5dff0" d="M 115.5,101.5 C 114.167,101.5 112.833,101.5 111.5,101.5C 107.833,101.5 104.167,101.5 100.5,101.5C 100.5,102.5 100.5,103.5 100.5,104.5C 98.8007,104.527 97.4674,105.194 96.5,106.5C 96.5,104.833 96.5,103.167 96.5,101.5C 92.4338,101.307 88.4338,101.64 84.5,102.5C 84.6107,101.883 84.944,101.383 85.5,101C 88.8168,100.502 92.1501,100.335 95.5,100.5C 95.5,99.5 95.5,98.5 95.5,97.5C 94.448,97.6495 93.448,97.4828 92.5,97C 94.5996,94.3592 97.2663,93.3592 100.5,94C 98.5494,95.7342 97.5494,97.9009 97.5,100.5C 103.69,100.177 109.69,100.51 115.5,101.5 Z"/></g>
<g><path style="opacity:1" fill="#6f7680" d="M 32.5,126.5 C 37.9443,125.892 42.9443,126.558 47.5,128.5C 42.3979,127.879 37.3979,127.213 32.5,126.5 Z"/></g>
<g><path style="opacity:1" fill="#747a84" d="M 191.5,126.5 C 186.061,126.936 180.728,127.936 175.5,129.5C 175.5,128.5 175.5,127.5 175.5,126.5C 180.833,126.5 186.167,126.5 191.5,126.5 Z"/></g>
<g><path style="opacity:1" fill="#5383b0" d="M 149.5,98.5 C 149.833,98.5 150.167,98.5 150.5,98.5C 154.814,115.542 150.814,130.209 138.5,142.5C 135.225,145.303 131.558,147.303 127.5,148.5C 125.365,146.631 122.698,145.964 119.5,146.5C 132.807,141.859 141.807,132.859 146.5,119.5C 146.981,125.653 148.148,125.32 150,118.5C 150.665,111.805 150.498,105.138 149.5,98.5 Z"/></g>
<g><path style="opacity:1" fill="#ededed" d="M 224.5,119.5 C 224.5,124.5 224.5,129.5 224.5,134.5C 219.821,134.334 215.155,134.501 210.5,135C 208.909,138.275 209.242,141.275 211.5,144C 208.833,145.667 208.833,147.333 211.5,149C 215.821,149.499 220.154,149.666 224.5,149.5C 224.5,154.5 224.5,159.5 224.5,164.5C 219.473,164.503 214.473,164.836 209.5,165.5C 209.5,169.833 209.5,174.167 209.5,178.5C 214.453,179.329 219.453,179.663 224.5,179.5C 224.5,184.5 224.5,189.5 224.5,194.5C 219.786,194.173 215.12,194.507 210.5,195.5C 209.833,196.167 209.167,196.833 208.5,197.5C 209.254,200.777 209.754,204.11 210,207.5C 210.5,208 211,208.5 211.5,209C 215.821,209.499 220.154,209.666 224.5,209.5C 224.5,214.5 224.5,219.5 224.5,224.5C 219.5,224.5 214.5,224.5 209.5,224.5C 209.216,221.223 209.549,218.057 210.5,215C 209.773,213.601 209.273,212.101 209,210.5C 204.333,209.167 199.667,209.167 195,210.5C 194.501,215.155 194.334,219.821 194.5,224.5C 189.5,224.5 184.5,224.5 179.5,224.5C 179.334,219.821 179.501,215.155 180,210.5C 184.529,209.905 189.029,209.072 193.5,208C 194.167,203.667 194.833,199.333 195.5,195C 200.086,194.803 204.586,194.303 209,193.5C 209.791,189.074 209.457,184.741 208,180.5C 203.667,179.833 199.333,179.167 195,178.5C 194.501,173.845 194.334,169.179 194.5,164.5C 189.652,164.641 184.985,164.641 180.5,164.5C 179.713,165.242 179.047,166.075 178.5,167C 179.464,171.066 179.797,175.233 179.5,179.5C 184.5,179.5 189.5,179.5 194.5,179.5C 194.5,184.5 194.5,189.5 194.5,194.5C 189.767,194.223 185.1,194.557 180.5,195.5C 179.508,199.783 179.174,204.116 179.5,208.5C 174.87,209.229 170.203,209.563 165.5,209.5C 164.947,214.482 164.613,219.482 164.5,224.5C 159.5,224.5 154.5,224.5 149.5,224.5C 149.341,220.009 149.175,215.676 149,211.5C 148.5,211 148,210.5 147.5,210C 143.5,209.333 139.5,209.333 135.5,210C 135,210.5 134.5,211 134,211.5C 134.291,215.774 134.457,220.107 134.5,224.5C 129.5,224.5 124.5,224.5 119.5,224.5C 119.5,219.5 119.5,214.5 119.5,209.5C 123.927,209.183 128.261,209.183 132.5,209.5C 133.192,208.975 133.692,208.308 134,207.5C 134.232,203.445 134.732,199.445 135.5,195.5C 140.12,194.468 144.786,193.802 149.5,193.5C 149.146,189.363 149.646,185.363 151,181.5C 151.333,181.833 151.667,182.167 152,182.5C 153.82,179.797 156.32,178.964 159.5,180C 157.381,180.098 155.714,180.931 154.5,182.5C 155,182.833 155.5,183.167 156,183.5C 157.011,183.108 157.511,182.441 157.5,181.5C 159.398,182.734 161.065,182.401 162.5,180.5C 160.556,179.199 158.556,178.199 156.5,177.5C 158.989,177.702 161.323,177.202 163.5,176C 168,171.5 172.5,167 177,162.5C 178.202,160.323 178.702,157.989 178.5,155.5C 179.091,154.849 179.757,154.182 180.5,153.5C 179.359,152.575 179.359,151.741 180.5,151C 184.73,149.71 189.064,149.21 193.5,149.5C 193.675,144.766 194.342,140.099 195.5,135.5C 199.7,134.863 203.866,134.196 208,133.5C 208.96,129.124 209.46,124.457 209.5,119.5C 214.5,119.5 219.5,119.5 224.5,119.5 Z"/></g>
<g><path style="opacity:1" fill="#fdfdfd" d="M 224.5,134.5 C 224.5,139.5 224.5,144.5 224.5,149.5C 220.154,149.666 215.821,149.499 211.5,149C 208.833,147.333 208.833,145.667 211.5,144C 209.242,141.275 208.909,138.275 210.5,135C 215.155,134.501 219.821,134.334 224.5,134.5 Z"/></g>
<g><path style="opacity:1" fill="#fefefe" d="M 199.5,149.5 C 202.833,149.5 206.167,149.5 209.5,149.5C 209.296,154.288 209.296,158.954 209.5,163.5C 197.055,168.208 192.222,164.208 195,151.5C 196.622,150.901 198.122,150.234 199.5,149.5 Z"/></g>
<g><path style="opacity:1" fill="#587aa0" d="M 97.5,149.5 C 106.224,150.825 115.224,150.825 124.5,149.5C 115.633,153.315 106.633,153.315 97.5,149.5 Z"/></g>
<g><path style="opacity:1" fill="#fdfdfd" d="M -0.5,164.5 C 4.5,164.5 9.5,164.5 14.5,164.5C 14.5,169.5 14.5,174.5 14.5,179.5C 9.5,179.5 4.5,179.5 -0.5,179.5C -0.5,174.5 -0.5,169.5 -0.5,164.5 Z"/></g>
<g><path style="opacity:1" fill="#fdfdfd" d="M 224.5,164.5 C 224.5,169.5 224.5,174.5 224.5,179.5C 219.453,179.663 214.453,179.329 209.5,178.5C 209.5,174.167 209.5,169.833 209.5,165.5C 214.473,164.836 219.473,164.503 224.5,164.5 Z"/></g>
<g><path style="opacity:1" fill="#fdfdfd" d="M -0.5,209.5 C -0.5,204.5 -0.5,199.5 -0.5,194.5C 4.5,194.5 9.5,194.5 14.5,194.5C 14.1975,189.57 14.5308,184.737 15.5,180C 20.2041,179.352 24.8708,179.519 29.5,180.5C 29.5,184.833 29.5,189.167 29.5,193.5C 24.7863,193.802 20.1197,194.468 15.5,195.5C 14.7315,199.445 14.2315,203.445 14,207.5C 13.6924,208.308 13.1924,208.975 12.5,209.5C 8.26068,209.183 3.92734,209.183 -0.5,209.5 Z"/></g>
<g><path style="opacity:1" fill="#fdfdfd" d="M 72.5,172.5 C 74.3786,172.393 74.7119,172.893 73.5,174C 74.1667,175.667 74.8333,177.333 75.5,179C 80.1548,179.499 84.8215,179.666 89.5,179.5C 89.33,180.822 89.6634,181.989 90.5,183C 89.7069,186.411 89.2069,189.911 89,193.5C 84.5855,194.303 80.0855,194.803 75.5,195C 74.6998,199.08 74.1998,203.247 74,207.5C 69.4668,209.036 64.8001,210.036 60,210.5C 59.5008,215.155 59.3342,219.821 59.5,224.5C 54.5,224.5 49.5,224.5 44.5,224.5C 44.6133,219.482 44.9466,214.482 45.5,209.5C 50.2029,209.563 54.8696,209.229 59.5,208.5C 59.1744,204.116 59.5078,199.783 60.5,195.5C 65.1001,194.557 69.7668,194.223 74.5,194.5C 74.5,189.5 74.5,184.5 74.5,179.5C 73.1667,179.5 71.8333,179.5 70.5,179.5C 70.5,177.833 70.5,176.167 70.5,174.5C 71.5,174.167 72.1667,173.5 72.5,172.5 Z"/></g>
<g><path style="opacity:1" fill="#fdfcfd" d="M 155.5,177.5 C 155.833,177.5 156.167,177.5 156.5,177.5C 158.556,178.199 160.556,179.199 162.5,180.5C 161.065,182.401 159.398,182.734 157.5,181.5C 157.511,182.441 157.011,183.108 156,183.5C 155.5,183.167 155,182.833 154.5,182.5C 155.714,180.931 157.381,180.098 159.5,180C 156.32,178.964 153.82,179.797 152,182.5C 151.667,182.167 151.333,181.833 151,181.5C 149.646,185.363 149.146,189.363 149.5,193.5C 144.786,193.802 140.12,194.468 135.5,195.5C 134.732,199.445 134.232,203.445 134,207.5C 133.692,208.308 133.192,208.975 132.5,209.5C 128.261,209.183 123.927,209.183 119.5,209.5C 118.956,205.327 119.623,201.494 121.5,198C 120.027,197.29 119.36,196.124 119.5,194.5C 124.349,194.978 129.349,194.978 134.5,194.5C 134.334,189.821 134.501,185.155 135,180.5C 139.737,179.531 144.57,179.197 149.5,179.5C 149.622,175.162 149.955,174.828 150.5,178.5C 152.292,178.634 153.958,178.301 155.5,177.5 Z"/></g>
<g><path style="opacity:1" fill="#fdfdfd" d="M 179.5,179.5 C 179.5,184.5 179.5,189.5 179.5,194.5C 174.5,194.5 169.5,194.5 164.5,194.5C 165.044,190.327 164.377,186.494 162.5,183C 163.949,181.883 165.616,181.216 167.5,181C 166.833,180.667 166.167,180.333 165.5,180C 170.155,179.501 174.821,179.334 179.5,179.5 Z"/></g>
<g><path style="opacity:1" fill="#fdfdfd" d="M 179.5,224.5 C 174.5,224.5 169.5,224.5 164.5,224.5C 164.613,219.482 164.947,214.482 165.5,209.5C 170.203,209.563 174.87,209.229 179.5,208.5C 179.174,204.116 179.508,199.783 180.5,195.5C 185.1,194.557 189.767,194.223 194.5,194.5C 194.5,189.5 194.5,184.5 194.5,179.5C 189.5,179.5 184.5,179.5 179.5,179.5C 179.797,175.233 179.464,171.066 178.5,167C 179.047,166.075 179.713,165.242 180.5,164.5C 184.985,164.641 189.652,164.641 194.5,164.5C 194.334,169.179 194.501,173.845 195,178.5C 199.333,179.167 203.667,179.833 208,180.5C 209.457,184.741 209.791,189.074 209,193.5C 204.586,194.303 200.086,194.803 195.5,195C 194.833,199.333 194.167,203.667 193.5,208C 189.029,209.072 184.529,209.905 180,210.5C 179.501,215.155 179.334,219.821 179.5,224.5 Z"/></g>
<g><path style="opacity:1" fill="#ededed" d="M 29.5,123.5 C 30.2719,124.694 31.2719,125.694 32.5,126.5C 37.3979,127.213 42.3979,127.879 47.5,128.5C 48.5805,134.829 50.9138,140.662 54.5,146C 51.4525,149.607 48.2858,153.107 45,156.5C 44.3333,157.833 44.3333,159.167 45,160.5C 50.7304,166.062 56.2304,171.729 61.5,177.5C 56.0539,179.292 50.3872,179.958 44.5,179.5C 44.3586,174.652 44.3586,169.985 44.5,165.5C 29.9643,160.533 25.6309,165.033 31.5,179C 35.7533,179.2 39.92,179.7 44,180.5C 44.4992,185.155 44.6658,189.821 44.5,194.5C 49.5,194.5 54.5,194.5 59.5,194.5C 59.3343,190.154 59.501,185.821 60,181.5C 62.0693,180.736 64.236,180.236 66.5,180C 65.5842,179.722 64.9175,179.222 64.5,178.5C 66.7541,177.585 68.7541,176.252 70.5,174.5C 70.5,176.167 70.5,177.833 70.5,179.5C 71.8333,179.5 73.1667,179.5 74.5,179.5C 74.5,184.5 74.5,189.5 74.5,194.5C 69.7668,194.223 65.1001,194.557 60.5,195.5C 59.5078,199.783 59.1744,204.116 59.5,208.5C 54.8696,209.229 50.2029,209.563 45.5,209.5C 44.9466,214.482 44.6133,219.482 44.5,224.5C 39.5,224.5 34.5,224.5 29.5,224.5C 29.3414,220.009 29.1748,215.676 29,211.5C 28.5,211 28,210.5 27.5,210C 23.5,209.333 19.5,209.333 15.5,210C 15,210.5 14.5,211 14,211.5C 14.2907,215.774 14.4573,220.107 14.5,224.5C 9.5,224.5 4.5,224.5 -0.5,224.5C -0.5,219.5 -0.5,214.5 -0.5,209.5C 3.92734,209.183 8.26068,209.183 12.5,209.5C 13.1924,208.975 13.6924,208.308 14,207.5C 14.2315,203.445 14.7315,199.445 15.5,195.5C 20.1197,194.468 24.7863,193.802 29.5,193.5C 29.5,189.167 29.5,184.833 29.5,180.5C 24.8708,179.519 20.2041,179.352 15.5,180C 14.5308,184.737 14.1975,189.57 14.5,194.5C 9.5,194.5 4.5,194.5 -0.5,194.5C -0.5,189.5 -0.5,184.5 -0.5,179.5C 4.5,179.5 9.5,179.5 14.5,179.5C 14.5,174.5 14.5,169.5 14.5,164.5C 9.5,164.5 4.5,164.5 -0.5,164.5C -0.5,159.5 -0.5,154.5 -0.5,149.5C 4.16667,149.5 8.83333,149.5 13.5,149.5C 13.8417,144.582 14.5083,139.749 15.5,135C 20.184,134.565 24.8507,134.065 29.5,133.5C 29.0025,130.007 29.0025,126.674 29.5,123.5 Z"/></g>
<g><path style="opacity:1" fill="#fdfdfd" d="M 61.5,177.5 C 62.209,178.404 63.209,178.737 64.5,178.5C 64.9175,179.222 65.5842,179.722 66.5,180C 64.236,180.236 62.0693,180.736 60,181.5C 59.501,185.821 59.3343,190.154 59.5,194.5C 54.5,194.5 49.5,194.5 44.5,194.5C 44.6658,189.821 44.4992,185.155 44,180.5C 39.92,179.7 35.7533,179.2 31.5,179C 25.6309,165.033 29.9643,160.533 44.5,165.5C 44.3586,169.985 44.3586,174.652 44.5,179.5C 50.3872,179.958 56.0539,179.292 61.5,177.5 Z"/></g>
<g><path style="opacity:1" fill="#fdfdfd" d="M 14.5,149.5 C 18.8461,149.334 23.1794,149.501 27.5,150C 28,150.5 28.5,151 29,151.5C 29.2463,154.89 29.7463,158.223 30.5,161.5C 29.8333,162.167 29.1667,162.833 28.5,163.5C 24.1667,164.833 19.8333,164.833 15.5,163.5C 14.5565,158.9 14.2232,154.233 14.5,149.5 Z"/></g>
<g><path style="opacity:1" fill="#fdfdfd" d="M 41.5,133.5 C 42.1515,134.091 42.8182,134.757 43.5,135.5C 44.8001,140.05 44.8001,144.55 43.5,149C 38.9132,149.799 34.4132,149.632 30,148.5C 29.7266,146.899 29.2266,145.399 28.5,144C 29.4505,140.943 29.7839,137.777 29.5,134.5C 33.7016,134.817 37.7016,134.483 41.5,133.5 Z"/></g>
<g><path style="opacity:1" fill="#fdfdfd" d="M 29.5,194.5 C 42.4615,190.963 47.1281,195.463 43.5,208C 38.9147,209.225 34.248,209.725 29.5,209.5C 29.7642,204.38 29.7642,199.38 29.5,194.5 Z"/></g>
<g><path style="opacity:1" fill="#f3f3f3" d="M 94.5,175.5 C 95.5824,177.979 94.5824,179.479 91.5,180C 92.8333,180.667 92.8333,181.333 91.5,182C 92.7376,181.923 93.7376,182.089 94.5,182.5C 93.8333,185.833 93.1667,189.167 92.5,192.5C 94.2651,194.053 96.0985,194.386 98,193.5C 98.1667,193.833 98.3333,194.167 98.5,194.5C 97.624,195.251 96.624,195.751 95.5,196C 97.9147,195.945 100.248,195.612 102.5,195C 101.692,195.308 101.025,195.808 100.5,196.5C 101.628,197.262 102.795,197.929 104,198.5C 104.499,202.152 104.665,205.818 104.5,209.5C 101.5,209.5 98.5,209.5 95.5,209.5C 95.5,210.833 95.5,212.167 95.5,213.5C 98.1873,213.336 100.854,213.503 103.5,214C 100.5,214.667 97.5,214.667 94.5,214C 93.3595,213.259 93.3595,212.425 94.5,211.5C 93.3112,210.571 91.9778,210.238 90.5,210.5C 90.4208,211.93 90.7542,213.264 91.5,214.5C 89.7108,217.556 89.0441,220.889 89.5,224.5C 79.5,224.5 69.5,224.5 59.5,224.5C 59.3342,219.821 59.5008,215.155 60,210.5C 64.8001,210.036 69.4668,209.036 74,207.5C 74.1998,203.247 74.6998,199.08 75.5,195C 80.0855,194.803 84.5855,194.303 89,193.5C 89.2069,189.911 89.7069,186.411 90.5,183C 89.6634,181.989 89.33,180.822 89.5,179.5C 84.8215,179.666 80.1548,179.499 75.5,179C 74.8333,177.333 74.1667,175.667 73.5,174C 74.7119,172.893 74.3786,172.393 72.5,172.5C 73.8342,170.841 75.5008,169.508 77.5,168.5C 82.604,172.201 88.2707,174.535 94.5,175.5 Z"/></g>
<g><path style="opacity:1" fill="#fdfdfd" d="M 149.5,194.5 C 162.461,190.963 167.128,195.463 163.5,208C 158.915,209.225 154.248,209.725 149.5,209.5C 149.764,204.38 149.764,199.38 149.5,194.5 Z"/></g>
<g><path style="opacity:1" fill="#fdfdfd" d="M 224.5,194.5 C 224.5,199.5 224.5,204.5 224.5,209.5C 220.154,209.666 215.821,209.499 211.5,209C 211,208.5 210.5,208 210,207.5C 209.754,204.11 209.254,200.777 208.5,197.5C 209.167,196.833 209.833,196.167 210.5,195.5C 215.12,194.507 219.786,194.173 224.5,194.5 Z"/></g>
<g><path style="opacity:1" fill="#ececed" d="M 155.5,177.5 C 153.958,178.301 152.292,178.634 150.5,178.5C 149.955,174.828 149.622,175.162 149.5,179.5C 144.57,179.197 139.737,179.531 135,180.5C 134.501,185.155 134.334,189.821 134.5,194.5C 129.349,194.978 124.349,194.978 119.5,194.5C 119.36,196.124 120.027,197.29 121.5,198C 119.623,201.494 118.956,205.327 119.5,209.5C 114.833,209.5 110.167,209.5 105.5,209.5C 104.836,214.473 104.503,219.473 104.5,224.5C 99.5,224.5 94.5,224.5 89.5,224.5C 89.0441,220.889 89.7108,217.556 91.5,214.5C 90.7542,213.264 90.4208,211.93 90.5,210.5C 91.9778,210.238 93.3112,210.571 94.5,211.5C 93.3595,212.425 93.3595,213.259 94.5,214C 97.5,214.667 100.5,214.667 103.5,214C 100.854,213.503 98.1873,213.336 95.5,213.5C 95.5,212.167 95.5,210.833 95.5,209.5C 98.5,209.5 101.5,209.5 104.5,209.5C 104.665,205.818 104.499,202.152 104,198.5C 102.795,197.929 101.628,197.262 100.5,196.5C 101.025,195.808 101.692,195.308 102.5,195C 100.248,195.612 97.9147,195.945 95.5,196C 96.624,195.751 97.624,195.251 98.5,194.5C 98.3333,194.167 98.1667,193.833 98,193.5C 96.0985,194.386 94.2651,194.053 92.5,192.5C 93.1667,189.167 93.8333,185.833 94.5,182.5C 93.7376,182.089 92.7376,181.923 91.5,182C 92.8333,181.333 92.8333,180.667 91.5,180C 94.5824,179.479 95.5824,177.979 94.5,175.5C 96.1045,180.506 97.2711,185.84 98,191.5C 98.5,192 99,192.5 99.5,193C 103.5,193.167 107.5,193.333 111.5,193.5C 126.244,196.083 131.578,190.083 127.5,175.5C 134.165,174.166 140.498,171.833 146.5,168.5C 149.854,171.188 152.854,174.188 155.5,177.5 Z"/></g>
<g><path style="opacity:1" fill="#fdfdfd" d="M 29.5,224.5 C 24.5,224.5 19.5,224.5 14.5,224.5C 14.4573,220.107 14.2907,215.774 14,211.5C 14.5,211 15,210.5 15.5,210C 19.5,209.333 23.5,209.333 27.5,210C 28,210.5 28.5,211 29,211.5C 29.1748,215.676 29.3414,220.009 29.5,224.5 Z"/></g>
<g><path style="opacity:1" fill="#fdfdfd" d="M 119.5,209.5 C 119.5,214.5 119.5,219.5 119.5,224.5C 114.5,224.5 109.5,224.5 104.5,224.5C 104.503,219.473 104.836,214.473 105.5,209.5C 110.167,209.5 114.833,209.5 119.5,209.5 Z"/></g>
<g><path style="opacity:1" fill="#fdfdfd" d="M 149.5,224.5 C 144.5,224.5 139.5,224.5 134.5,224.5C 134.457,220.107 134.291,215.774 134,211.5C 134.5,211 135,210.5 135.5,210C 139.5,209.333 143.5,209.333 147.5,210C 148,210.5 148.5,211 149,211.5C 149.175,215.676 149.341,220.009 149.5,224.5 Z"/></g>
<g><path style="opacity:1" fill="#fdfdfd" d="M 209.5,224.5 C 204.5,224.5 199.5,224.5 194.5,224.5C 194.334,219.821 194.501,215.155 195,210.5C 199.667,209.167 204.333,209.167 209,210.5C 209.273,212.101 209.773,213.601 210.5,215C 209.549,218.057 209.216,221.223 209.5,224.5 Z"/></g>
</svg>
